#!OML:ASF E:\Steps\Project 1\Capture day 1\Session 2\Subject.ASF
:FULLY-SPECIFIED
:DEGREES
918
root 9.09487 22.6294 -20.8661 -154.17 -1.09753 179.257
lowerback -30.3418 -1.14917 -6.12141
upperback -2.46656 -0.353323 0.0477408
thorax 13.1445 -0.870764 3.14434
lowerneck -5.78823 -2.66401 -0.0337181
upperneck 5.17735 -3.79051 2.90607
head 2.71572 -1.80815 0.781099
rclavicle 2.78299e-015 -1.70955e-014
rhumerus -34.8844 -13.9193 -80.1488
rradius 34.3813
rwrist 0.206481
rhand -7.14574 -55.6737
rfingers 7.12502
rthumb 18.7306 -84.7919
lclavicle 2.78299e-015 -1.70955e-014
lhumerus -29.8291 3.65385 82.9791
lradius 27.4427
lwrist -3.77677
lhand -21.1699 -13.1657
lfingers 7.12502
lthumb 5.21027 16.7502
rfemur -22.7444 6.07294 19.2578
rtibia 5.39464
rfoot -17.8671 -2.61065
rtoes -28.1525
lfemur -21.4696 -9.09181 -20.4016
ltibia 8.60953
lfoot -10.5401 0.0978219
ltoes -30.0341
919
root 9.09545 22.631 -20.8617 -154.191 -1.04478 179.257
lowerback -30.2047 -1.16167 -6.15921
upperback -2.54822 -0.379273 0.0454339
thorax 12.9924 -0.882757 3.1533
lowerneck -5.75752 -2.67589 -0.196845
upperneck 5.18259 -3.81513 3.17544
head 2.72353 -1.81696 0.895466
rclavicle -4.17448e-015 5.56597e-015
rhumerus -34.9929 -13.883 -80.0768
rradius 34.1276
rwrist 0.0472335
rhand -6.83821 -55.7101
rfingers 7.12502
rthumb 19.0264 -84.7995
lclavicle -4.17448e-015 5.56597e-015
lhumerus -29.9767 3.83378 82.8185
lradius 27.1159
lwrist -3.99603
lhand -21.2429 -13.4914
lfingers 7.12502
lthumb 5.13985 16.4263
rfemur -22.787 6.12906 19.2331
rtibia 5.4671
rfoot -17.8968 -2.6314
rtoes -28.376
lfemur -21.4752 -9.05771 -20.3984
ltibia 8.62574
lfoot -10.6027 0.176042
ltoes -31.7812
920
root 9.0956 22.6315 -20.8599 -154.169 -1.02304 179.268
lowerback -30.1925 -1.17315 -6.2044
upperback -2.57724 -0.387606 0.0548406
thorax 12.9542 -0.889618 3.18437
lowerneck -5.79666 -2.7313 -0.104887
upperneck 5.28383 -3.89534 3.08954
head 2.76186 -1.85643 0.847553
rclavicle -5.14355e-015 3.06128e-014
rhumerus -35.1098 -14.0418 -79.9373
rradius 33.9902
rwrist 0.189142
rhand -6.38868 -55.9997
rfingers 7.12502
rthumb 19.4587 -85.046
lclavicle -5.14355e-015 3.06128e-014
lhumerus -29.971 3.65103 82.8106
lradius 26.7231
lwrist -3.83911
lhand -21.189 -13.2971
lfingers 7.12502
lthumb 5.19188 16.6193
rfemur -22.8361 6.18068 19.2214
rtibia 5.47811
rfoot -17.9047 -2.65342
rtoes -28.436
lfemur -21.5231 -8.99245 -20.3936
ltibia 8.61737
lfoot -10.5886 0.17642
ltoes -31.7225
921
root 9.09554 22.6322 -20.86 -154.147 -1.02244 179.311
lowerback -30.2121 -1.19336 -6.20944
upperback -2.57787 -0.416421 0.092232
thorax 12.9655 -0.904159 3.21612
lowerneck -5.84137 -2.7576 -0.00306334
upperneck 5.34892 -3.93096 2.9507
head 2.78646 -1.87498 0.782788
rclavicle 8.77137e-015 -3.18055e-015
rhumerus -35.1785 -14.2331 -79.7698
rradius 33.8102
rwrist 0.478506
rhand -6.41802 -55.8365
rfingers 7.12502
rthumb 19.4305 -84.8857
lclavicle 8.77137e-015 -3.18055e-015
lhumerus -29.9459 3.40778 82.8532
lradius 26.3396
lwrist -3.4252
lhand -21.2303 -13.058
lfingers 7.12502
lthumb 5.15197 16.8594
rfemur -22.8545 6.26002 19.2514
rtibia 5.45067
rfoot -17.8951 -2.68673
rtoes -28.3373
lfemur -21.5498 -8.93919 -20.3453
ltibia 8.57879
lfoot -10.5334 0.127437
ltoes -30.8987
922
root 9.09607 22.6348 -20.8536 -154.203 -0.947909 179.298
lowerback -30.1215 -1.21877 -6.27148
upperback -2.50719 -0.417259 0.106589
thorax 13.0069 -0.903676 3.26755
lowerneck -6.01866 -2.7395 0.0457703
upperneck 5.41065 -3.90619 2.86161
head 2.83665 -1.86145 0.744165
rclavicle 3.60297e-015 -2.78299e-015
rhumerus -35.045 -14.4419 -79.6603
rradius 33.5075
rwrist 0.641219
rhand -6.55398 -55.638
rfingers 7.12502
rthumb 19.2997 -84.7003
lclavicle 3.60297e-015 -2.78299e-015
lhumerus -29.7939 3.53857 82.7711
lradius 25.8933
lwrist -3.28167
lhand -21.5668 -13.3112
lfingers 7.12502
lthumb 4.82709 16.6138
rfemur -22.8704 6.38931 19.192
rtibia 5.51615
rfoot -17.8903 -2.75654
rtoes -28.4044
lfemur -21.5073 -8.92557 -20.3485
ltibia 8.63579
lfoot -10.5808 0.145633
ltoes -30.782
923
root 9.09595 22.6361 -20.8482 -154.292 -0.851127 179.209
lowerback -30.1167 -1.27214 -6.41287
upperback -2.38571 -0.410659 0.0805526
thorax 13.142 -0.905502 3.31992
lowerneck -6.02505 -2.69031 0.237153
upperneck 5.39739 -3.8417 2.67291
head 2.82262 -1.83113 0.653015
rclavicle 1.41634e-015 -1.47101e-014
rhumerus -34.9337 -14.6683 -79.6093
rradius 33.3454
rwrist 0.743713
rhand -6.2726 -56.2988
rfingers 7.12502
rthumb 19.5703 -85.3338
lclavicle 1.41634e-015 -1.47101e-014
lhumerus -29.5465 3.85508 82.5953
lradius 25.3528
lwrist -3.27572
lhand -21.6032 -13.274
lfingers 7.12502
lthumb 4.79192 16.6518
rfemur -22.8235 6.47183 19.0486
rtibia 5.54877
rfoot -17.8613 -2.84521
rtoes -28.5391
lfemur -21.3993 -8.90768 -20.4709
ltibia 8.64645
lfoot -10.6233 0.201657
ltoes -31.9315
924
root 9.09547 22.6361 -20.8493 -154.324 -0.817108 179.193
lowerback -30.0861 -1.24571 -6.43838
upperback -2.40654 -0.370028 0.0513368
thorax 13.0996 -0.887606 3.31789
lowerneck -5.31471 -2.57131 -0.0806887
upperneck 4.46504 -3.6713 3.38084
head 2.4008 -1.75073 0.954002
rclavicle -2.21148e-015 1.51076e-014
rhumerus -35.1432 -15.0067 -79.4019
rradius 33.3124
rwrist 0.96441
rhand -5.70577 -57.2027
rfingers 7.12502
rthumb 20.1152 -86.1813
lclavicle -2.21148e-015 1.51076e-014
lhumerus -29.5988 3.91209 82.4837
lradius 24.9576
lwrist -3.27476
lhand -21.344 -13.0989
lfingers 7.12502
lthumb 5.04221 16.8211
rfemur -22.7634 6.51252 19.0192
rtibia 5.5093
rfoot -17.8512 -2.89606
rtoes -28.602
lfemur -21.3297 -8.86214 -20.5069
ltibia 8.58118
lfoot -10.6669 0.171452
ltoes -32.5166
925
root 9.09553 22.6367 -20.851 -154.334 -0.811171 179.252
lowerback -30.0521 -1.30563 -6.39695
upperback -2.47339 -0.478882 0.0483232
thorax 13.0188 -0.935756 3.24972
lowerneck -5.64649 -2.56316 0.387081
upperneck 5.11462 -3.69191 2.8833
head 2.65605 -1.7563 0.707029
rclavicle -1.19271e-015 9.54166e-015
rhumerus -35.1862 -15.2419 -79.3023
rradius 32.8596
rwrist 1.44944
rhand -5.3948 -57.3323
rfingers 7.12502
rthumb 20.414 -86.2792
lclavicle -1.19271e-015 9.54166e-015
lhumerus -29.8517 4.25038 82.1392
lradius 24.6366
lwrist -3.60585
lhand -21.1469 -12.9829
lfingers 7.12502
lthumb 5.23254 16.9325
rfemur -22.7575 6.5431 19.0926
rtibia 5.54552
rfoot -17.8968 -2.88502
rtoes -28.6196
lfemur -21.3119 -8.78801 -20.4438
ltibia 8.5821
lfoot -10.7326 0.0653374
ltoes -31.8661
926
root 9.09599 22.6369 -20.8515 -154.34 -0.806569 179.308
lowerback -30.055 -1.32392 -6.36607
upperback -2.41209 -0.501698 0.0716136
thorax 13.0938 -0.943417 3.25039
lowerneck -6.08624 -2.57938 0.472468
upperneck 5.42911 -3.72839 2.77117
head 2.84048 -1.76815 0.647935
rclavicle -1.39149e-015 3.97569e-015
rhumerus -34.9906 -15.5034 -79.1508
rradius 32.3842
rwrist 1.76985
rhand -5.41231 -57.0813
rfingers 7.12502
rthumb 20.3972 -86.0301
lclavicle -1.39149e-015 3.97569e-015
lhumerus -29.7504 4.71225 81.9283
lradius 24.1693
lwrist -4.04333
lhand -21.0103 -12.8262
lfingers 7.12502
lthumb 5.36438 17.0859
rfemur -22.7842 6.60097 19.1554
rtibia 5.61704
rfoot -17.928 -2.91765
rtoes -28.6675
lfemur -21.3191 -8.67293 -20.3948
ltibia 8.64979
lfoot -10.8036 -0.00049351
ltoes -32.4141
927
root 9.09586 22.6365 -20.8533 -154.307 -0.836711 179.428
lowerback -30.1539 -1.31596 -6.25976
upperback -2.37888 -0.520375 0.107233
thorax 13.1792 -0.948652 3.2231
lowerneck -6.11477 -2.58408 0.502445
upperneck 5.41474 -3.73779 2.7765
head 2.84055 -1.77202 0.643744
rclavicle 9.98893e-015 -3.57812e-015
rhumerus -35.0048 -15.539 -79.0562
rradius 32.2037
rwrist 1.70849
rhand -5.36915 -57.308
rfingers 7.12502
rthumb 20.4387 -86.2523
lclavicle 9.98893e-015 -3.57812e-015
lhumerus -29.7262 5.14474 81.7387
lradius 23.6195
lwrist -4.19941
lhand -21.1136 -12.998
lfingers 7.12502
lthumb 5.26467 16.9166
rfemur -22.8212 6.6447 19.3011
rtibia 5.63498
rfoot -17.9349 -2.95676
rtoes -28.7508
lfemur -21.3434 -8.6033 -20.2488
ltibia 8.66807
lfoot -10.863 0.0112205
ltoes -33.1629
928
root 9.09536 22.6362 -20.8557 -154.28 -0.831174 179.502
lowerback -30.258 -1.31501 -6.19493
upperback -2.37932 -0.540449 0.123511
thorax 13.2273 -0.957704 3.19593
lowerneck -1.27085 -2.27503 -2.64833
upperneck -0.986121 -3.1275 7.4425
head 0.0812697 -1.61567 2.79987
rclavicle -2.88238e-015 -8.34896e-015
rhumerus -35.0572 -15.6163 -78.9339
rradius 31.8857
rwrist 1.74061
rhand -5.31909 -57.6259
rfingers 7.12502
rthumb 20.4868 -86.5651
lclavicle -2.88238e-015 -8.34896e-015
lhumerus -29.7681 5.61988 81.4937
lradius 23.0135
lwrist -4.48708
lhand -21.3659 -13.4198
lfingers 7.12502
lthumb 5.02102 16.5007
rfemur -22.8424 6.63486 19.3948
rtibia 5.63384
rfoot -17.9586 -2.90296
rtoes -28.7573
lfemur -21.3245 -8.59679 -20.1524
ltibia 8.5841
lfoot -10.8589 0.0324244
ltoes -32.6998
